<svg width="163" height="163" viewBox="0 0 163 163" fill="none" xmlns="http://www.w3.org/2000/svg">
<g filter="url(#filter0_d_4167_328)">
<rect x="9.19922" y="5.2002" width="144" height="144" rx="25.263" fill="url(#paint0_linear_4167_328)"/>
<path d="M90.9222 103.101C92.9281 108.444 90.1927 114.559 84.5068 115.056C79.3624 115.505 74.1437 114.905 69.1764 113.248C60.9131 110.492 53.8475 104.981 49.1627 97.637C44.478 90.2933 42.4585 81.5629 43.4424 72.9079C44.4263 64.2529 48.354 56.1986 54.5676 50.0938C60.7812 43.989 68.9036 40.2043 77.5747 39.3734C86.2458 38.5426 94.9391 40.716 102.199 45.5298C109.459 50.3436 114.844 57.5055 117.454 65.8162C119.023 70.8119 119.531 76.0404 118.991 81.1761C118.394 86.8523 112.231 89.4792 106.924 87.3793V87.3793C101.617 85.2793 99.3575 78.9968 98.1145 73.4262C98.0083 72.9499 97.8816 72.4768 97.7344 72.0081C96.5442 68.2177 94.0879 64.9513 90.7768 62.7558C87.4657 60.5604 83.5009 59.5691 79.5461 59.948C75.5914 60.327 71.8869 62.0531 69.053 64.8374C66.219 67.6217 64.4277 71.2951 63.9789 75.2425C63.5302 79.19 64.4513 83.1717 66.5879 86.5211C68.7245 89.8705 71.947 92.3841 75.7158 93.6411C76.1818 93.7965 76.6526 93.9315 77.127 94.0462C82.6747 95.3874 88.9163 97.7575 90.9222 103.101V103.101Z" fill="white"/>
<circle cx="107.699" cy="103.7" r="11.5" fill="white"/>
</g>
<defs>
<filter id="filter0_d_4167_328" x="-0.000781059" y="0.000195503" width="162.4" height="162.4" filterUnits="userSpaceOnUse" color-interpolation-filters="sRGB">
<feFlood flood-opacity="0" result="BackgroundImageFix"/>
<feColorMatrix in="SourceAlpha" type="matrix" values="0 0 0 0 0 0 0 0 0 0 0 0 0 0 0 0 0 0 127 0" result="hardAlpha"/>
<feOffset dy="4"/>
<feGaussianBlur stdDeviation="4.6"/>
<feComposite in2="hardAlpha" operator="out"/>
<feColorMatrix type="matrix" values="0 0 0 0 0 0 0 0 0 0 0 0 0 0 0 0 0 0 0.25 0"/>
<feBlend mode="normal" in2="BackgroundImageFix" result="effect1_dropShadow_4167_328"/>
<feBlend mode="normal" in="SourceGraphic" in2="effect1_dropShadow_4167_328" result="shape"/>
</filter>
<linearGradient id="paint0_linear_4167_328" x1="130.199" y1="137.7" x2="34.1992" y2="23.7002" gradientUnits="userSpaceOnUse">
<stop stop-color="#2B619A"/>
<stop offset="1" stop-color="#285696"/>
</linearGradient>
</defs>
</svg>
