<svg xmlns="http://www.w3.org/2000/svg" xmlns:xlink="http://www.w3.org/1999/xlink" width="500" zoomAndPan="magnify" viewBox="0 0 375 374.999991" height="500" preserveAspectRatio="xMidYMid meet" version="1.0"><defs><g/><clipPath id="d7eaea6c29"><rect x="0" width="193" y="0" height="305"/></clipPath><clipPath id="a2f5ad696e"><rect x="0" width="48" y="0" height="22"/></clipPath></defs><rect x="-37.5" width="450" fill="#ffffff" y="-37.499999" height="449.999989" fill-opacity="1"/><rect x="-37.5" width="450" fill="#f6f4f0" y="-37.499999" height="449.999989" fill-opacity="1"/><g transform="matrix(1, 0, 0, 1, 88, 35)"><g clip-path="url(#d7eaea6c29)"><g fill="#cb6ce6" fill-opacity="1"><g transform="translate(0.957879, 246.172156)"><g><path d="M 104.59375 4.703125 C 85.363281 4.703125 68.773438 0.804688 54.828125 -6.984375 C 40.890625 -14.785156 30.1875 -26.335938 22.71875 -41.640625 C 15.25 -56.953125 11.515625 -75.832031 11.515625 -98.28125 C 11.515625 -120.8125 15.25 -139.707031 22.71875 -154.96875 C 30.1875 -170.238281 40.890625 -181.773438 54.828125 -189.578125 C 68.773438 -197.378906 85.363281 -201.28125 104.59375 -201.28125 C 118.957031 -201.28125 131.851562 -198.925781 143.28125 -194.21875 C 154.707031 -189.519531 164.363281 -182.671875 172.25 -173.671875 C 180.132812 -164.679688 185.972656 -153.707031 189.765625 -140.75 L 149.28125 -128.25 C 146.644531 -139.882812 141.488281 -148.753906 133.8125 -154.859375 C 126.132812 -160.960938 116.394531 -164.015625 104.59375 -164.015625 C 93.375 -164.015625 84.050781 -161.375 76.625 -156.09375 C 69.195312 -150.8125 63.625 -143.257812 59.90625 -133.4375 C 56.195312 -123.625 54.34375 -111.90625 54.34375 -98.28125 C 54.34375 -84.664062 56.195312 -72.925781 59.90625 -63.0625 C 63.625 -53.207031 69.195312 -45.640625 76.625 -40.359375 C 84.050781 -35.078125 93.375 -32.4375 104.59375 -32.4375 C 116.394531 -32.4375 126.132812 -35.507812 133.8125 -41.65625 C 141.488281 -47.800781 146.644531 -56.691406 149.28125 -68.328125 L 189.765625 -55.828125 C 185.972656 -42.953125 180.132812 -31.992188 172.25 -22.953125 C 164.363281 -13.921875 154.707031 -7.050781 143.28125 -2.34375 C 131.851562 2.351562 118.957031 4.703125 104.59375 4.703125 Z M 104.59375 4.703125 "/></g></g></g></g></g><g transform="matrix(1, 0, 0, 1, 244, 176)"><g clip-path="url(#a2f5ad696e)"><g fill="#cb6ce6" fill-opacity="1"><g transform="translate(0.64384, 15.950265)"><g><path d="M 5.921875 -9.015625 C 5.484375 -9.015625 5.097656 -8.925781 4.765625 -8.75 C 4.429688 -8.582031 4.148438 -8.335938 3.921875 -8.015625 C 3.691406 -7.703125 3.515625 -7.316406 3.390625 -6.859375 C 3.273438 -6.410156 3.21875 -5.90625 3.21875 -5.34375 C 3.21875 -4.582031 3.3125 -3.929688 3.5 -3.390625 C 3.6875 -2.859375 3.976562 -2.453125 4.375 -2.171875 C 4.78125 -1.890625 5.296875 -1.75 5.921875 -1.75 C 6.359375 -1.75 6.796875 -1.796875 7.234375 -1.890625 C 7.671875 -1.992188 8.144531 -2.132812 8.65625 -2.3125 L 8.65625 -0.40625 C 8.1875 -0.207031 7.71875 -0.0664062 7.25 0.015625 C 6.789062 0.0976562 6.273438 0.140625 5.703125 0.140625 C 4.597656 0.140625 3.6875 -0.0859375 2.96875 -0.546875 C 2.257812 -1.003906 1.734375 -1.644531 1.390625 -2.46875 C 1.046875 -3.289062 0.875 -4.253906 0.875 -5.359375 C 0.875 -6.171875 0.984375 -6.914062 1.203125 -7.59375 C 1.421875 -8.269531 1.742188 -8.851562 2.171875 -9.34375 C 2.597656 -9.84375 3.125 -10.226562 3.75 -10.5 C 4.382812 -10.769531 5.109375 -10.90625 5.921875 -10.90625 C 6.453125 -10.90625 6.984375 -10.835938 7.515625 -10.703125 C 8.054688 -10.566406 8.570312 -10.382812 9.0625 -10.15625 L 8.328125 -8.296875 C 7.929688 -8.484375 7.53125 -8.648438 7.125 -8.796875 C 6.71875 -8.941406 6.316406 -9.015625 5.921875 -9.015625 Z M 5.921875 -9.015625 "/></g></g></g><g fill="#cb6ce6" fill-opacity="1"><g transform="translate(9.49597, 15.950265)"><g><path d="M 8.65625 -4.125 C 8.65625 -3.4375 8.5625 -2.828125 8.375 -2.296875 C 8.1875 -1.765625 7.914062 -1.316406 7.5625 -0.953125 C 7.21875 -0.585938 6.796875 -0.3125 6.296875 -0.125 C 5.804688 0.0507812 5.253906 0.140625 4.640625 0.140625 C 4.054688 0.140625 3.523438 0.0507812 3.046875 -0.125 C 2.566406 -0.3125 2.144531 -0.585938 1.78125 -0.953125 C 1.425781 -1.316406 1.148438 -1.765625 0.953125 -2.296875 C 0.765625 -2.828125 0.671875 -3.4375 0.671875 -4.125 C 0.671875 -5.039062 0.832031 -5.8125 1.15625 -6.4375 C 1.476562 -7.070312 1.9375 -7.550781 2.53125 -7.875 C 3.132812 -8.207031 3.851562 -8.375 4.6875 -8.375 C 5.457031 -8.375 6.140625 -8.207031 6.734375 -7.875 C 7.328125 -7.550781 7.796875 -7.070312 8.140625 -6.4375 C 8.484375 -5.8125 8.65625 -5.039062 8.65625 -4.125 Z M 2.96875 -4.125 C 2.96875 -3.582031 3.023438 -3.128906 3.140625 -2.765625 C 3.253906 -2.398438 3.4375 -2.125 3.6875 -1.9375 C 3.9375 -1.75 4.265625 -1.65625 4.671875 -1.65625 C 5.066406 -1.65625 5.390625 -1.75 5.640625 -1.9375 C 5.890625 -2.125 6.070312 -2.398438 6.1875 -2.765625 C 6.300781 -3.128906 6.359375 -3.582031 6.359375 -4.125 C 6.359375 -4.664062 6.300781 -5.117188 6.1875 -5.484375 C 6.070312 -5.847656 5.890625 -6.117188 5.640625 -6.296875 C 5.390625 -6.472656 5.0625 -6.5625 4.65625 -6.5625 C 4.0625 -6.5625 3.628906 -6.359375 3.359375 -5.953125 C 3.097656 -5.546875 2.96875 -4.9375 2.96875 -4.125 Z M 2.96875 -4.125 "/></g></g></g><g fill="#cb6ce6" fill-opacity="1"><g transform="translate(18.076191, 15.950265)"><g><path d="M 5.765625 -8.375 C 5.878906 -8.375 6.007812 -8.367188 6.15625 -8.359375 C 6.3125 -8.347656 6.4375 -8.332031 6.53125 -8.3125 L 6.359375 -6.203125 C 6.285156 -6.234375 6.179688 -6.253906 6.046875 -6.265625 C 5.910156 -6.273438 5.789062 -6.28125 5.6875 -6.28125 C 5.40625 -6.28125 5.125 -6.242188 4.84375 -6.171875 C 4.570312 -6.097656 4.328125 -5.976562 4.109375 -5.8125 C 3.898438 -5.644531 3.734375 -5.425781 3.609375 -5.15625 C 3.484375 -4.894531 3.421875 -4.570312 3.421875 -4.1875 L 3.421875 0 L 1.171875 0 L 1.171875 -8.21875 L 2.875 -8.21875 L 3.203125 -6.84375 L 3.3125 -6.84375 C 3.476562 -7.125 3.679688 -7.378906 3.921875 -7.609375 C 4.160156 -7.835938 4.4375 -8.019531 4.75 -8.15625 C 5.0625 -8.300781 5.398438 -8.375 5.765625 -8.375 Z M 5.765625 -8.375 "/></g></g></g><g fill="#cb6ce6" fill-opacity="1"><g transform="translate(24.17248, 15.950265)"><g><path d="M 5.765625 -8.375 C 5.878906 -8.375 6.007812 -8.367188 6.15625 -8.359375 C 6.3125 -8.347656 6.4375 -8.332031 6.53125 -8.3125 L 6.359375 -6.203125 C 6.285156 -6.234375 6.179688 -6.253906 6.046875 -6.265625 C 5.910156 -6.273438 5.789062 -6.28125 5.6875 -6.28125 C 5.40625 -6.28125 5.125 -6.242188 4.84375 -6.171875 C 4.570312 -6.097656 4.328125 -5.976562 4.109375 -5.8125 C 3.898438 -5.644531 3.734375 -5.425781 3.609375 -5.15625 C 3.484375 -4.894531 3.421875 -4.570312 3.421875 -4.1875 L 3.421875 0 L 1.171875 0 L 1.171875 -8.21875 L 2.875 -8.21875 L 3.203125 -6.84375 L 3.3125 -6.84375 C 3.476562 -7.125 3.679688 -7.378906 3.921875 -7.609375 C 4.160156 -7.835938 4.4375 -8.019531 4.75 -8.15625 C 5.0625 -8.300781 5.398438 -8.375 5.765625 -8.375 Z M 5.765625 -8.375 "/></g></g></g><g fill="#cb6ce6" fill-opacity="1"><g transform="translate(30.268769, 15.950265)"><g><path d="M 5.765625 -8.375 C 5.878906 -8.375 6.007812 -8.367188 6.15625 -8.359375 C 6.3125 -8.347656 6.4375 -8.332031 6.53125 -8.3125 L 6.359375 -6.203125 C 6.285156 -6.234375 6.179688 -6.253906 6.046875 -6.265625 C 5.910156 -6.273438 5.789062 -6.28125 5.6875 -6.28125 C 5.40625 -6.28125 5.125 -6.242188 4.84375 -6.171875 C 4.570312 -6.097656 4.328125 -5.976562 4.109375 -5.8125 C 3.898438 -5.644531 3.734375 -5.425781 3.609375 -5.15625 C 3.484375 -4.894531 3.421875 -4.570312 3.421875 -4.1875 L 3.421875 0 L 1.171875 0 L 1.171875 -8.21875 L 2.875 -8.21875 L 3.203125 -6.84375 L 3.3125 -6.84375 C 3.476562 -7.125 3.679688 -7.378906 3.921875 -7.609375 C 4.160156 -7.835938 4.4375 -8.019531 4.75 -8.15625 C 5.0625 -8.300781 5.398438 -8.375 5.765625 -8.375 Z M 5.765625 -8.375 "/></g></g></g><g fill="#cb6ce6" fill-opacity="1"><g transform="translate(36.365059, 15.950265)"><g><path d="M 4.546875 -8.390625 C 5.648438 -8.390625 6.492188 -8.148438 7.078125 -7.671875 C 7.671875 -7.191406 7.96875 -6.460938 7.96875 -5.484375 L 7.96875 0 L 6.40625 0 L 5.96875 -1.125 L 5.90625 -1.125 C 5.664062 -0.820312 5.421875 -0.578125 5.171875 -0.390625 C 4.929688 -0.210938 4.648438 -0.0820312 4.328125 0 C 4.015625 0.09375 3.628906 0.140625 3.171875 0.140625 C 2.691406 0.140625 2.257812 0.0507812 1.875 -0.125 C 1.488281 -0.3125 1.179688 -0.597656 0.953125 -0.984375 C 0.734375 -1.367188 0.625 -1.859375 0.625 -2.453125 C 0.625 -3.328125 0.929688 -3.972656 1.546875 -4.390625 C 2.160156 -4.804688 3.082031 -5.035156 4.3125 -5.078125 L 5.734375 -5.125 L 5.734375 -5.484375 C 5.734375 -5.910156 5.617188 -6.222656 5.390625 -6.421875 C 5.171875 -6.628906 4.859375 -6.734375 4.453125 -6.734375 C 4.054688 -6.734375 3.664062 -6.675781 3.28125 -6.5625 C 2.90625 -6.445312 2.523438 -6.304688 2.140625 -6.140625 L 1.390625 -7.65625 C 1.828125 -7.882812 2.316406 -8.0625 2.859375 -8.1875 C 3.398438 -8.320312 3.960938 -8.390625 4.546875 -8.390625 Z M 5.734375 -3.8125 L 4.875 -3.78125 C 4.144531 -3.757812 3.640625 -3.628906 3.359375 -3.390625 C 3.078125 -3.148438 2.9375 -2.832031 2.9375 -2.4375 C 2.9375 -2.09375 3.035156 -1.847656 3.234375 -1.703125 C 3.429688 -1.566406 3.691406 -1.5 4.015625 -1.5 C 4.503906 -1.5 4.910156 -1.640625 5.234375 -1.921875 C 5.566406 -2.203125 5.734375 -2.609375 5.734375 -3.140625 Z M 5.734375 -3.8125 "/></g></g></g></g></g></svg>